<?xml version="1.0" encoding="UTF-8"?>
<svg xmlns="http://www.w3.org/2000/svg" width="123" height="36" viewBox="0 0 123 36" fill="none">
  <g clip-path="url(#clip0_1803_301)">
    <path fill-rule="evenodd" clip-rule="evenodd" d="M91.5589 24.8607L91.0329 22.7693C89.4545 23.8341 87.8386 24.3663 86.0348 24.3663C82.6151 24.3663 80.022 22.3509 79.7589 17.9397H91.3335V16.4184C91.3335 11.5129 88.3269 8.77502 84.0806 8.77502C79.2704 8.77502 75.5876 12.8441 75.5876 18.1297C75.5876 24.0622 79.6085 27.7889 84.9072 27.7889C87.5003 27.7889 89.7549 26.8 91.5589 24.8607ZM83.78 11.3229C85.8467 11.3229 87.1622 12.8441 87.2372 15.506H79.8341C80.2476 12.8059 81.7506 11.3229 83.78 11.3229Z" fill="black"></path>
    <path fill-rule="evenodd" clip-rule="evenodd" d="M74.4761 25.1324L74.4765 0.569092H69.233V0.762575L69.2396 0.768867C69.9136 1.32336 70.3052 2.15569 70.3052 3.03482V11.0186H70.1173C69.0647 9.61148 67.2986 8.77502 65.3446 8.77502C60.4591 8.77502 56.889 12.882 56.889 18.4722C56.889 24.2141 60.3838 27.7889 64.5553 27.7889C66.923 27.7889 68.8395 26.7241 70.1173 24.6705H70.3052V27.6025L75.5495 27.5995V27.4058L75.5423 27.3991C74.8678 26.8445 74.4761 26.0119 74.4761 25.1324ZM70.3052 19.5749C70.3052 22.541 68.351 24.6705 65.8706 24.6705C63.0898 24.6705 61.2107 22.1607 61.2107 18.2057C61.2107 14.1369 63.1273 11.4749 66.0585 11.4749C68.6891 11.4749 70.3052 13.7187 70.3052 17.1031V19.5749Z" fill="black"></path>
    <path fill-rule="evenodd" clip-rule="evenodd" d="M9.78881 0.567749H9.53698L1.61329 12.8221C0.641727 14.3389 0.0776367 16.1477 0.0776367 18.0898C0.0776367 23.4461 4.36865 27.7883 9.66192 27.7883C14.9552 27.7883 19.2464 23.4461 19.2464 18.0898C19.2464 16.13 18.672 14.306 17.6841 12.7808L9.78881 0.567749ZM9.66231 25.6641C5.8019 25.6641 2.62547 22.7076 2.21974 18.9103L2.42202 18.8364C3.51969 20.4706 6.34617 21.6346 9.66231 21.6346C12.9738 21.6346 15.7972 20.4739 16.8979 18.8433L17.1043 18.9188C16.6945 22.7119 13.5198 25.6641 9.66231 25.6641Z" fill="black"></path>
    <path fill-rule="evenodd" clip-rule="evenodd" d="M56.4281 25.0509C55.639 25.0509 55.2257 24.5946 55.2257 23.5298V15.7722C55.2257 13.5882 54.6325 12.0115 53.6836 10.9135C53.6801 10.909 53.6774 10.905 53.6737 10.9005C53.6665 10.8917 53.6586 10.8836 53.6514 10.8748C53.6479 10.8706 53.6444 10.8667 53.6409 10.8626C53.1071 10.2198 52.4188 9.76872 51.6993 9.45294C51.2061 9.23055 50.6807 9.06813 50.1364 8.95802C49.5665 8.83572 49.0372 8.77594 48.6154 8.74763C48.4778 8.73327 48.312 8.72541 48.114 8.72541C48.1096 8.72049 48.1037 8.71676 48.0969 8.71676C47.8572 8.71676 47.6184 8.72482 47.3803 8.73917C47.0362 8.75451 46.6996 8.79108 46.373 8.84279C44.1283 9.17117 42.0097 10.1354 40.2702 11.6391C40.1365 11.7511 40.0042 11.865 39.8746 11.9826L32.3217 18.8428L31.4614 19.6037V0.569031H26.2294V0.762711L26.2329 0.765857H26.2333C26.9095 1.32035 27.3024 2.15406 27.3024 3.03496L27.3033 25.1359C27.3033 26.014 26.9128 26.8454 26.2403 27.3999L26.2294 27.4101V27.6024H32.2482V27.4128C31.6682 26.5325 31.478 25.5484 31.4434 23.8971L31.5625 23.776L32.8819 22.5614L36.5379 27.6024H41.8424L35.9001 19.8153L42.2289 14.0672C43.0821 13.2921 44.0848 12.6952 45.1832 12.3621C45.3227 12.3198 45.4638 12.2812 45.6059 12.247C46.5644 12.0154 47.7105 11.9259 48.9236 12.2333C50.2163 12.5607 51.0919 13.7398 51.0919 15.5819V15.6548L46.844 17.6001C46.1363 17.9241 45.4284 18.2478 44.712 18.551C42.4801 19.4954 41.0205 20.8407 41.0205 23.1114C41.0205 25.9637 43.2001 27.7888 45.8307 27.7888C47.8976 27.7888 49.7764 26.762 50.9415 24.6325H51.1294V24.6705C51.2419 26.458 52.7076 27.7509 54.6995 27.7509C55.8646 27.7509 56.8416 27.4467 57.8561 26.7241L57.5555 24.7847C57.2172 24.9367 56.8041 25.0509 56.4281 25.0509ZM50.6603 23.1175C49.8716 24.3423 48.2508 24.6882 47.0405 23.8898C45.8301 23.0917 45.4883 21.4516 46.2772 20.2268C46.5632 19.7827 46.9587 19.4541 47.4042 19.2537L50.9314 17.6864L51.0785 17.7835L51.0851 21.6679C51.0863 22.1658 50.9491 22.6694 50.6603 23.1175Z" fill="black"></path>
    <path fill-rule="evenodd" clip-rule="evenodd" d="M120.188 25.0509C119.399 25.0509 118.986 24.5946 118.986 23.5298V15.7722C118.986 11.9959 117.214 10.0332 114.891 9.22838C113.988 8.93815 113.013 8.8009 111.964 8.81801C108.244 8.87857 104.651 10.4719 102.097 16.695L100.153 21.9688L100.153 21.9705H99.9649L96.921 13.9087C96.2069 11.9692 95.9059 10.6384 96.4323 9.45942V9.26928H90.1189V9.45942C91.1711 10.7524 91.7348 12.0071 92.5241 14.0228L98.0105 27.7509L97.7849 28.3211C96.7704 31.0591 95.1547 31.8199 93.1628 31.8199C92.2233 31.8199 91.3215 31.6296 90.4947 31.2872V34.7477C91.3215 35.2041 92.261 35.4322 93.3132 35.4322C95.9438 35.4322 98.499 34.2915 100.303 29.576L102.039 25.0584L105.119 17.0627C105.45 16.225 106.041 15.0887 106.939 14.0979C107.971 12.9596 109.364 12.2038 110.882 12.0392C110.941 12.0327 111 12.0272 111.06 12.0223C111.145 12.0168 111.245 12.0132 111.354 12.0128C111.66 12.0203 111.978 12.0535 112.309 12.1167C112.435 12.1489 112.56 12.1874 112.684 12.2333C113.934 12.6995 114.852 13.7398 114.852 15.5819V15.6548L110.28 17.7483C109.632 18.0452 108.978 18.3284 108.325 18.6145C106.176 19.5555 104.781 20.891 104.781 23.1114C104.781 25.9637 106.96 27.7888 109.591 27.7888C111.658 27.7888 113.537 26.762 114.702 24.6325H114.89V24.6705C115.002 26.458 116.468 27.7509 118.46 27.7509C119.625 27.7509 120.602 27.4467 121.616 26.7241L121.316 24.7847C120.977 24.9367 120.564 25.0509 120.188 25.0509ZM114.42 23.1175C113.632 24.3423 112.011 24.6882 110.801 23.8898C109.59 23.0917 109.248 21.4516 110.037 20.2268C110.323 19.7826 110.719 19.4541 111.164 19.2537L114.692 17.6864L114.839 17.7835L114.845 21.6679C114.846 22.1658 114.709 22.6694 114.42 23.1175Z" fill="black"></path>
    <path fill-rule="evenodd" clip-rule="evenodd" d="M121.057 4.95276C121.169 4.85759 121.225 4.70776 121.225 4.50268C121.225 4.27223 121.156 4.10588 121.019 4.00324C120.881 3.90099 120.677 3.84967 120.406 3.84967H119.554V6.12172H119.923V5.15037H120.27L120.85 6.12172H121.268L120.639 5.12284C120.805 5.10456 120.944 5.04793 121.057 4.95276ZM120.335 4.83203H119.923V4.16801H120.368C120.422 4.16801 120.478 4.17077 120.536 4.17627C120.594 4.18178 120.646 4.19534 120.693 4.21737C120.74 4.23939 120.779 4.27046 120.81 4.31077C120.841 4.35088 120.856 4.40593 120.856 4.47534C120.856 4.5595 120.842 4.62439 120.813 4.6702C120.784 4.71602 120.746 4.75161 120.699 4.77717C120.652 4.80273 120.596 4.81827 120.533 4.82377C120.47 4.82928 120.404 4.83203 120.335 4.83203Z" fill="black"></path>
    <path fill-rule="evenodd" clip-rule="evenodd" d="M122.649 3.93062C122.513 3.61857 122.33 3.34781 122.098 3.11835C121.867 2.88888 121.597 2.70877 121.289 2.57801C120.98 2.44725 120.652 2.38177 120.303 2.38177C119.953 2.38177 119.623 2.44725 119.313 2.57801C119.002 2.70877 118.73 2.88888 118.496 3.11835C118.263 3.34781 118.078 3.61857 117.942 3.93062C117.806 4.24267 117.738 4.58009 117.738 4.94248C117.738 5.3143 117.806 5.65722 117.942 5.97163C118.078 6.28604 118.263 6.55916 118.496 6.79079C118.73 7.02262 119.002 7.20273 119.313 7.33113C119.623 7.45953 119.953 7.52383 120.303 7.52383C120.652 7.52383 120.98 7.45953 121.289 7.33113C121.597 7.20273 121.867 7.02262 122.098 6.79079C122.33 6.55916 122.513 6.28604 122.649 5.97163C122.785 5.65722 122.853 5.3143 122.853 4.94248C122.853 4.58009 122.785 4.24267 122.649 3.93062ZM122.231 5.82023C122.124 6.08863 121.977 6.32163 121.789 6.51885C121.601 6.71627 121.38 6.87102 121.126 6.98349C120.872 7.09596 120.597 7.1522 120.303 7.1522C120.003 7.1522 119.725 7.09596 119.469 6.98349C119.213 6.87102 118.991 6.71627 118.803 6.51885C118.614 6.32163 118.467 6.08863 118.36 5.82023C118.254 5.55163 118.201 5.25925 118.201 4.94248C118.201 4.63515 118.254 4.34826 118.36 4.08203C118.467 3.81599 118.614 3.58534 118.803 3.39029C118.991 3.19523 119.213 3.04166 119.469 2.92899C119.725 2.81672 120.003 2.76048 120.303 2.76048C120.597 2.76048 120.872 2.81672 121.126 2.92899C121.38 3.04166 121.601 3.19523 121.789 3.39029C121.977 3.58534 122.124 3.81599 122.231 4.08203C122.338 4.34826 122.391 4.63515 122.391 4.94248C122.391 5.25925 122.338 5.55163 122.231 5.82023Z" fill="black"></path>
  </g>
  <defs>
    <clipPath id="clip0_1803_301">
      <rect width="123" height="35" fill="white" transform="translate(0 0.5)"></rect>
    </clipPath>
  </defs>
</svg>
