<svg fill="none" height="64" viewBox="0 0 64 64" width="64" xmlns="http://www.w3.org/2000/svg"><path d="m56 31.9997h-32m32-16h-32m32 32h-32m-10.6667-16c0 1.4727-1.1939 2.6666-2.6666 2.6666-1.47279 0-2.6667-1.1939-2.6667-2.6666 0-1.4728 1.19391-2.6667 2.6667-2.6667 1.4727 0 2.6666 1.1939 2.6666 2.6667zm0-16c0 1.4727-1.1939 2.6666-2.6666 2.6666-1.47279 0-2.6667-1.1939-2.6667-2.6666 0-1.4728 1.19391-2.6667 2.6667-2.6667 1.4727 0 2.6666 1.1939 2.6666 2.6667zm0 32c0 1.4727-1.1939 2.6666-2.6666 2.6666-1.47279 0-2.6667-1.1939-2.6667-2.6666 0-1.4728 1.19391-2.6667 2.6667-2.6667 1.4727 0 2.6666 1.1939 2.6666 2.6667z" stroke="#327fc9" stroke-linecap="round" stroke-linejoin="round" stroke-width="2"/></svg>