<svg fill="none" height="32" viewBox="0 0 32 32" width="32" xmlns="http://www.w3.org/2000/svg"><path d="m26.6673 16.667v-7.60001c0-2.24021 0-3.36031-.436-4.21596-.3835-.75265-.9954-1.36457-1.748-1.74806-.8557-.43598-1.9758-.43598-4.216-.43598h-8.5333c-2.24023 0-3.36033 0-4.21598.43598-.75265.38349-1.36457.99541-1.74806 1.74806-.43598.85565-.43598 1.97575-.43598 4.21596v13.86671c0 2.2402 0 3.3603.43598 4.2159.38349.7527.99541 1.3646 1.74806 1.7481.85565.436 1.97575.436 4.21598.436h4.2667m2.6666-14.6667h-8m2.6667 5.3333h-2.6667m10.6667-10.66664h-10.6667m8.6667 16.00004 2.6667 2.6666 5.9999-6" stroke="#327fc9" stroke-linecap="round" stroke-linejoin="round" stroke-width="2"/></svg>