<svg fill="none" height="64" viewBox="0 0 64 64" width="64" xmlns="http://www.w3.org/2000/svg"><g stroke="#327fc9" stroke-linecap="round" stroke-linejoin="round" stroke-width="2"><path d="m6.45366 33.9015c-.36316-.5751-.54475-.8626-.6464-1.306-.07635-.3332-.07635-.8585 0-1.1916.10165-.4435.28323-.731.6464-1.306 3.00108-4.752 11.93404-16.7649 25.54744-16.7649 13.6133 0 22.5463 12.0129 25.5474 16.7649.3632.575.5447.8625.6464 1.306.0763.3331.0763.8584 0 1.1916-.1017.4434-.2832.7309-.6464 1.306-3.0011 4.7519-11.9341 16.7648-25.5474 16.7648-13.6134 0-22.54635-12.0129-25.54744-16.7648z"/><path d="m32.0011 39.9997c4.4183 0 8-3.5817 8-8s-3.5817-8-8-8-8 3.5817-8 8 3.5817 8 8 8z"/></g></svg>