<svg fill="none" height="64" viewBox="0 0 64 64" width="64" xmlns="http://www.w3.org/2000/svg"><path d="m45.3333 53.333h-.5333c-4.4804 0-6.7206 0-8.4319-.8719-1.5053-.767-2.7292-1.9909-3.4962-3.4962-.8719-1.7113-.8719-3.9515-.8719-8.4319v-17.0667c0-4.4804 0-6.7206.8719-8.4319.767-1.5053 1.9909-2.7291 3.4962-3.4961 1.7113-.872 3.9515-.872 8.4319-.872h.5333m0 42.6667c0 2.9455 2.3878 5.3333 5.3334 5.3333 2.9455 0 5.3333-2.3878 5.3333-5.3333s-2.3878-5.3333-5.3333-5.3333c-2.9456 0-5.3334 2.3878-5.3334 5.3333zm0-42.6667c0 2.9456 2.3878 5.3334 5.3334 5.3334 2.9455 0 5.3333-2.3878 5.3333-5.3334 0-2.94548-2.3878-5.33329-5.3333-5.33329-2.9456 0-5.3334 2.38781-5.3334 5.33329zm-26.6666 21.3334h26.6666m-26.6666 0c0 2.9455-2.3878 5.3333-5.3334 5.3333-2.9455 0-5.3333-2.3878-5.3333-5.3333s2.3878-5.3334 5.3333-5.3334c2.9456 0 5.3334 2.3879 5.3334 5.3334zm26.6666 0c0 2.9455 2.3878 5.3333 5.3334 5.3333 2.9455 0 5.3333-2.3878 5.3333-5.3333s-2.3878-5.3334-5.3333-5.3334c-2.9456 0-5.3334 2.3879-5.3334 5.3334z" stroke="#327fc9" stroke-linecap="round" stroke-linejoin="round" stroke-width="2"/></svg>