<svg fill="none" height="64" viewBox="0 0 64 64" width="64" xmlns="http://www.w3.org/2000/svg"><path d="m12.0007 58.6663v-13.3333m0-26.6667v-13.33329m-6.66672 6.66669h13.33332m-13.33332 40h13.33332m16-44.00003-4.6245 12.02363c-.752 1.9553-1.128 2.9329-1.7127 3.7553-.5183.7288-1.1551 1.3656-1.8839 1.8838-.8223.5848-1.8.9608-3.7553 1.7128l-12.0236 4.6245 12.0237 4.6244c1.9552.7521 2.9329 1.1281 3.7552 1.7128.7288.5183 1.3656 1.155 1.8839 1.8839.5847.8223.9607 1.8 1.7127 3.7552l4.6245 12.0237 4.6245-12.0237c.752-1.9552 1.128-2.9329 1.7128-3.7552.5182-.7289 1.155-1.3656 1.8838-1.8839.8224-.5847 1.8-.9607 3.7553-1.7128l12.0236-4.6244-12.0236-4.6245c-1.9553-.752-2.9329-1.128-3.7553-1.7128-.7288-.5182-1.3656-1.155-1.8838-1.8838-.5848-.8224-.9608-1.8-1.7128-3.7553z" stroke="#32d583" stroke-linecap="round" stroke-linejoin="round" stroke-width="2"/></svg>