<svg xmlns="http://www.w3.org/2000/svg" width="17" height="18" viewBox="0 0 17 18" fill="none">
<g clip-path="url(#clip0_931_4075)">
<mask id="mask0_931_4075" style="mask-type:alpha" maskUnits="userSpaceOnUse" x="0" y="0" width="17" height="18">
<rect x="0.723145" y="0.967346" width="16.0653" height="16.0653" fill="#D9D9D9"/>
</mask>
<g mask="url(#mask0_931_4075)">
<path d="M7.63124 12.695L13.2943 7.03201L12.1697 5.90743L7.63124 10.4459L5.34193 8.15658L4.21735 9.28115L7.63124 12.695ZM8.75581 17.0327C7.64462 17.0327 6.60038 16.8218 5.62307 16.4001C4.64576 15.9784 3.79564 15.4061 3.0727 14.6831C2.34976 13.9602 1.77743 13.1101 1.35572 12.1327C0.934002 11.1554 0.723145 10.1112 0.723145 9.00001C0.723145 7.88882 0.934002 6.84458 1.35572 5.86727C1.77743 4.88996 2.34976 4.03984 3.0727 3.3169C3.79564 2.59396 4.64576 2.02163 5.62307 1.59992C6.60038 1.1782 7.64462 0.967346 8.75581 0.967346C9.86699 0.967346 10.9112 1.1782 11.8885 1.59992C12.8659 2.02163 13.716 2.59396 14.4389 3.3169C15.1619 4.03984 15.7342 4.88996 16.1559 5.86727C16.5776 6.84458 16.7885 7.88882 16.7885 9.00001C16.7885 10.1112 16.5776 11.1554 16.1559 12.1327C15.7342 13.1101 15.1619 13.9602 14.4389 14.6831C13.716 15.4061 12.8659 15.9784 11.8885 16.4001C10.9112 16.8218 9.86699 17.0327 8.75581 17.0327Z" fill="#00AC8D"/>
</g>
</g>
<defs>
<clipPath id="clip0_931_4075">
<rect x="0.723145" y="0.967346" width="16.0653" height="16.0653" rx="8.03266" fill="white"/>
</clipPath>
</defs>
</svg>